<svg version="1.1" id="cart-icon" xmlns="http://www.w3.org/2000/svg" xmlns:xlink="http://www.w3.org/1999/xlink" x="20px" width="40px" height="40px" y="20px" viewBox="0 0 600 500">
    <g class="g-cart-icon">
        <g class="g-cart-icon-case">
            <g>
                <path d="M209.642,412.078c-24.233,0-43.962,19.752-43.962,43.975c0,24.244,19.729,43.947,43.962,43.947
                                                                                                        c24.252,0,43.986-19.703,43.986-43.947C253.616,431.83,233.894,412.078,209.642,412.078z M209.642,475.441
                                                                                                        c-10.705,0-19.414-8.672-19.414-19.389c0-10.719,8.709-19.428,19.414-19.428c10.718,0,19.433,8.709,19.433,19.428
                                                                                                        C229.074,466.77,220.359,475.441,209.642,475.441z">
                </path>
            </g>
            <g>
                <path d="M363.877,412.078c-24.233,0-43.949,19.752-43.949,43.975c0,24.244,19.716,43.947,43.949,43.947
                                                                                                        c24.271,0,43.986-19.703,43.986-43.947C407.863,431.83,388.147,412.078,363.877,412.078z M363.877,475.441
                                                                                                        c-10.68,0-19.427-8.672-19.427-19.389c0-10.719,8.747-19.428,19.427-19.428c10.718,0,19.427,8.709,19.427,19.428
                                                                                                        C383.304,466.77,374.595,475.441,363.877,475.441z">
                </path>
            </g>
            <g>
                <path d="M494.456,125.871c-4.656-5.748-11.621-9.037-19.025-9.037H93.036l-7.712-37.485
                                                                                                        c-1.612-7.831-6.958-14.394-14.275-17.563L17.174,38.393c-6.231-2.698-13.46,0.144-16.158,6.363
                                                                                                        c-2.698,6.225,0.163,13.453,6.375,16.151l53.875,23.38l59.41,288.348c2.335,11.332,12.449,19.59,24.039,19.59h294.12
                                                                                                        c6.777,0,12.249-5.498,12.249-12.273c0-6.777-5.472-12.287-12.249-12.287h-294.12l-7.21-35.076h303.589
                                                                                                        c11.596,0,21.686-8.258,24.07-19.59l34.336-166.672C500.981,139.066,499.125,131.611,494.456,125.871z M441.095,308.029H132.442
                                                                                                        L98.106,141.381h377.324L441.095,308.029z">
                </path>
            </g>
        </g>
                                
        <g class="g-cart-icon-book-stick" style="visibility: inherit; opacity: 1;">
            <path d="M176.922,159.214c-4.995,0-9.047,4.051-9.047,9.047v113.987c0,4.996,4.052,9.047,9.047,9.047
                                                                                                    c4.996,0,9.047-4.051,9.047-9.047V168.261C185.969,163.265,181.918,159.214,176.922,159.214z">
            </path>
        </g>
        <g class="g-cart-icon-book-stick" style="visibility: inherit; opacity: 1;">
            <path d="M249.296,159.214c-4.995,0-9.046,4.051-9.046,9.047v113.987c0,4.996,4.051,9.047,9.046,9.047
                                                                                                    c4.997,0,9.048-4.051,9.048-9.047V168.261C258.344,163.265,254.293,159.214,249.296,159.214z">
            </path>
        </g>
        <g class="g-cart-icon-book-stick" style="visibility: inherit; opacity: 1;">
            <path d="M321.67,159.214c-4.995,0-9.046,4.051-9.046,9.047v113.987c0,4.996,4.051,9.047,9.046,9.047
                                                                                                    c4.996,0,9.047-4.051,9.047-9.047V168.261C330.717,163.265,326.666,159.214,321.67,159.214z">
            </path>
        </g>
        <g class="g-cart-icon-book-stick" style="visibility: inherit; opacity: 1;">
            <path d="M394.044,159.214c-4.995,0-9.047,4.051-9.047,9.047v113.987c0,4.996,4.052,9.047,9.047,9.047
                                                                                                    c4.996,0,9.047-4.051,9.047-9.047V168.261C403.091,163.265,399.04,159.214,394.044,159.214z">
            </path>
        </g>
        <g class="g-cart-icon-book" style="visibility: inherit; opacity: 1;">
            <polygon points="205.951,66.961 242.85,117.039 249.499,112.129 212.636,62.035 		"></polygon>
            <polygon points="218.803,57.452 255.667,107.528 262.385,102.61 225.555,52.526 		"></polygon>
            <path d="M294.735,105.643l-1.723,11.567h9.612l2.826-18.855L239.682,9.03L92.69,117.21h186.301L294.735,105.643z
                                                                                                        M233.582,117.192l-33.556-45.613l-6.685,4.908l29.939,40.705h-9.611l-26.598-36.121l-6.684,4.942l22.945,31.179h-11.025
                                                                                                    l-19.327-26.209l-6.719,4.917l15.711,21.292h-9.612l-12.265-16.717l-6.718,4.918l8.682,11.799h-8.476l-5.72-7.742l-6.684,4.928
                                                                                                    l2.066,2.814h-34.537l129.041-94.915l54.16,73.658l-28.907,21.257H233.582z">
            </path>
        </g>
        <g class="g-cart-icon-book" style="visibility: inherit; opacity: 1;">
            <polygon points="375.646,66.961 412.545,117.039 419.194,112.129 382.33,62.035 		"></polygon>
            <polygon points="388.497,57.452 425.363,107.528 432.081,102.61 395.25,52.526 		"></polygon>
            <path d="M464.431,105.643l-1.723,11.567h9.612l2.826-18.855L409.376,9.03L262.385,117.21h186.301L464.431,105.643z
                                                                                                        M403.277,117.192l-33.556-45.613l-6.685,4.908l29.939,40.705h-9.612l-26.597-36.121l-6.685,4.942l22.946,31.179h-11.026
                                                                                                    l-19.326-26.209l-6.718,4.917l15.709,21.292h-9.611l-12.265-16.717l-6.719,4.918l8.682,11.799h-8.475l-5.719-7.742l-6.685,4.928
                                                                                                    l2.066,2.814h-34.538l129.041-94.915l54.16,73.658L432.7,117.192H403.277z">
            </path>
        </g>
    </g>
</svg>
