<?xml version="1.0" encoding="UTF-8"?>
<!-- Generator: Adobe Illustrator 16.0.0, SVG Export Plug-In . SVG Version: 6.00 Build 0)  -->
<!DOCTYPE svg PUBLIC "-//W3C//DTD SVG 1.1//EN" "http://www.w3.org/Graphics/SVG/1.1/DTD/svg11.dtd">
<svg version="1.1" id="Layer_1" xmlns="http://www.w3.org/2000/svg" xmlns:xlink="http://www.w3.org/1999/xlink" x="0px" y="0px" width="18px" height="18px" viewBox="0 0 100 100" enable-background="new 0 0 100 100" xml:space="preserve">
<g>
	<g>
		<g>
			<path d="M20.316,19.386c0-3.143-2.559-5.698-5.7-5.698c-3.145,0-5.703,2.555-5.703,5.698c0,3.143,2.559,5.7,5.703,5.7     C17.758,25.085,20.316,22.528,20.316,19.386z M16.557,19.386c0,1.069-0.873,1.941-1.94,1.941c-1.071,0-1.943-0.872-1.943-1.941     s0.873-1.94,1.943-1.94C15.684,17.445,16.557,18.316,16.557,19.386z"/>
		</g>
	</g>
	<g>
		<g>
			<path d="M100,40.787c0-3.357-1.953-6.267-4.782-7.654c1.322-1.501,2.126-3.471,2.126-5.622c0-3.356-1.953-6.268-4.778-7.655     c1.321-1.5,2.125-3.47,2.125-5.622c0-4.697-3.821-8.521-8.519-8.521H37.048c-4.42,0-7.624,1.398-9.606,2.649     c-1.276-1.421-3.131-2.317-5.186-2.317H6.973C3.129,6.046,0,9.174,0,13.019v38.203c0,3.847,3.128,6.975,6.973,6.975h15.283     c1.732,0,3.317-0.638,4.538-1.687c3.486,1.563,14.782,7.214,19.519,16.687c1.846,3.691,3.135,13.606,3.486,17.227     c0.062,2.298,2.148,4.114,4.439,3.835c2.715-0.332,5.078-1.719,6.836-4.018c2.08-2.715,4.258-8.066,2.816-18.15     c-0.619-4.336-1.703-7.461-2.643-9.509h30.233c4.697,0,8.519-3.821,8.519-8.519c0-2.68-1.247-5.075-3.184-6.638     C98.753,45.862,100,43.468,100,40.787z M24.665,10.899c-0.078,0.208-0.117,0.428-0.117,0.654v41.918     c-0.583,0.594-1.396,0.965-2.292,0.965H6.973c-1.771,0-3.213-1.44-3.213-3.215V13.019c0-1.772,1.442-3.213,3.213-3.213h15.283     C23.217,9.806,24.076,10.229,24.665,10.899z M81.706,47.425c0,1.038,0.84,1.88,1.878,1.88h7.897c2.623,0,4.762,2.134,4.762,4.758     c0,2.623-2.135,4.759-4.762,4.759h-33.46c-1.553,0-2.441,1.865-1.455,3.069c0.016,0.023,2.539,3.281,3.604,10.732     c1.256,8.789-0.436,13.19-2.076,15.332c-1.43,1.862-3.135,2.429-4.311,2.572c-0.023,0-0.088,0.006-0.152-0.053     c-0.049-0.039-0.076-0.098-0.076-0.159s-0.002-0.12-0.01-0.179c-0.049-0.551-1.32-13.525-3.87-18.62     c-5.091-10.188-16.367-16.165-20.771-18.186c0.212-0.665,0.326-1.373,0.326-2.109V13.019c0-0.432-0.042-0.856-0.117-1.267     c1.429-0.978,4.059-2.277,7.939-2.277h49.121c2.624,0,4.759,2.134,4.759,4.759c0,2.622-2.135,4.757-4.759,4.757h-4.03     c-1.035,0-1.878,0.841-1.878,1.881c0,1.037,0.843,1.878,1.878,1.878h6.687c2.624,0,4.759,2.135,4.759,4.759     s-2.135,4.758-4.759,4.758h-5.241c-1.041,0-1.881,0.843-1.881,1.88c0,1.04,0.84,1.88,1.881,1.88h7.895     c2.627,0,4.762,2.135,4.762,4.759c0,2.622-2.135,4.758-4.762,4.758h-7.895C82.546,45.545,81.706,46.386,81.706,47.425z"/>
		</g>
	</g>
</g>
<script xmlns=""/></svg>